Results																																																																																																																																																																																																																			
version=1																																																																																																																																																																																																																			
nRows=5																																																																																																																																																																																																																			
nColumns=212																																																																																																																																																																																																																			
inDegrees=yes																																																																																																																																																																																																																			
endheader																																																																																																																																																																																																																			
time	pelvis_tilt	pelvis_list	pelvis_rotation	pelvis_tx	pelvis_ty	pelvis_tz	back_tilt	back_list	back_rotation	hip_flexion_r	hip_adduction_r	hip_rotation_r	knee_angle_r	ankle_angle_r	subtalar_angle_r	mtp_angle_r	hip_flexion_l	hip_adduction_l	hip_rotation_l	knee_angle_l	ankle_angle_l	subtalar_angle_l	mtp_angle_l	sternoclavicular_r2	sternoclavicular_r3	unrotscap_r3	unrotscap_r2	acromioclavicular_r2	acromioclavicular_r3	acromioclavicular_r1	unrothum_r1	unrothum_r3	unrothum_r2	elv_angle	shoulder_elv	shoulder1_r2	shoulder_rot	elbow_flexion	pro_sup	deviation	flexion	proximal_distal_r1	proximal_distal_r3	cmc_flexion	cmc_abduction	mp_flexion	ip_flexion	2mcp_flexion	2mcp_abduction	2pm_flexion	2md_flexion	bicpt_tx	bicpt_ty	bicpt_tz	bicpt2_tx	bicpt2_ty	bicpt2_tz	ptpt_tx	ptpt_ty	ptpt_tz	FCUpt_tx	FCUpt_ty	FCUpt_tz	EDCpt_tx	EDCpt_ty	EDCpt_tz	APLpt_tx	APLpt_ty	APLpt_tz	FPLpt_tx	FPLpt_ty	FPLpt_tz	FPLpt2_tx	FPLpt2_ty	FPLpt2_tz	PEC1pt2_tx	PEC1pt2_ty	PEC1pt2_tz	PEC1pt3_tx	PEC1pt3_ty	PEC1pt3_tz	PEC2pt2_tx	PEC2pt2_ty	PEC2pt2_tz	PEC2pt3_tx	PEC2pt3_ty	PEC2pt3_tz	PEC3pt2_tx	PEC3pt2_ty	PEC3pt2_tz	PEC3pt3_tx	PEC3pt3_ty	PEC3pt3_tz	DELT2pt2a_tx	DELT2pt2a_ty	DELT2pt2a_tz	DELT2pt2_tx	DELT2pt2_ty	DELT2pt2_tz	LAT1pt2_tx	LAT1pt2_ty	LAT1pt2_tz	LAT1pt3_tx	LAT1pt3_ty	LAT1pt3_tz	LAT2pt2_tx	LAT2pt2_ty	LAT2pt2_tz	LAT2pt3_tx	LAT2pt3_ty	LAT2pt3_tz	LAT3pt2_tx	LAT3pt2_ty	LAT3pt2_tz	LAT3pt3_tx	LAT3pt3_ty	LAT3pt3_tz	sternoclavicular_r2_l	sternoclavicular_r3_l	unrotscap_r3_l	unrotscap_r2_l	acromioclavicular_r2_l	acromioclavicular_r3_l	acromioclavicular_r1_l	unrothum_r1_l	unrothum_r3_l	unrothum_r2_l	elv_angle_l	shoulder_elv_l	shoulder1_r2_l	shoulder_rot_l	elbow_flexion_l	pro_sup_l	deviation_l	flexion_l	proximal_distal_r1_l	proximal_distal_r3_l	cmc_flexion_l	cmc_abduction_l	mp_flexion_l	ip_flexion_l	2mcp_flexion_l	2mcp_abduction_l	2pm_flexion_l	2md_flexion_l	bicpt_tx_l	bicpt_ty_l	bicpt_tz_l	bicpt2_tx_l	bicpt2_ty_l	bicpt2_tz_l	ptpt_tx_l	ptpt_ty_l	ptpt_tz_l	FCUpt_tx_l	FCUpt_ty_l	FCUpt_tz_l	EDCpt_tx_l	EDCpt_ty_l	EDCpt_tz_l	APLpt_tx_l	APLpt_ty_l	APLpt_tz_l	FPLpt_tx_l	FPLpt_ty_l	FPLpt_tz_l	FPLpt2_tx_l	FPLpt2_ty_l	FPLpt2_tz_l	PEC1pt2_tx_l	PEC1pt2_ty_l	PEC1pt2_tz_l	PEC1pt3_tx_l	PEC1pt3_ty_l	PEC1pt3_tz_l	PEC2pt2_tx_l	PEC2pt2_ty_l	PEC2pt2_tz_l	PEC2pt3_tx_l	PEC2pt3_ty_l	PEC2pt3_tz_l	PEC3pt2_tx_l	PEC3pt2_ty_l	PEC3pt2_tz_l	PEC3pt3_tx_l	PEC3pt3_ty_l	PEC3pt3_tz_l	DELT2pt2a_tx_l	DELT2pt2a_ty_l	DELT2pt2a_tz_l	DELT2pt2_tx_l	DELT2pt2_ty_l	DELT2pt2_tz_l	LAT1pt2_tx_l	LAT1pt2_ty_l	LAT1pt2_tz_l	LAT1pt3_tx_l	LAT1pt3_ty_l	LAT1pt3_tz_l	LAT2pt2_tx_l	LAT2pt2_ty_l	LAT2pt2_tz_l	LAT2pt3_tx_l	LAT2pt3_ty_l	LAT2pt3_tz_l	LAT3pt2_tx_l	LAT3pt2_ty_l	LAT3pt2_tz_l	LAT3pt3_tx_l	LAT3pt3_ty_l	LAT3pt3_tz_l
0	-0.00000061	0.0000053	22.00000026	0.14064753	0.60749041	-0.15075666	-0.05359968	-2.01791863	0.00000001	71.99999992	0	0	-49.99980313	0	0	0	71.99999992	0	0	-49.99986444	0	0	0	-7.48659254	3.17096725	-3.17096725	7.48659254	-1.5158827	12.25083076	5.50666411	-5.50666411	-12.25083076	1.5158827	58.06160224	30.93626345	-58.06160224	19.96756215	48.54677274	7.98883582	8.28997694	-9.51092541	10.26890672	-4.75546271	0	0	0.00000004	0.00000033	0.00016933	-0.00019073	0	0	0.00143285	-0.03155799	-0.00494458	0.01459939	-0.02225524	-0.00967639	0.00662264	-0.06211995	-0.00065995	0.00448714	-0.17510321	0.00021569	-0.00091223	0.00022476	0.00009377	0.00016271	0.00006508	0.00032542	0.00020827	0.0006248	0.00035145	0	0	0	0.00090119	0.0031618	0.00219951	-0.00307558	0.00742601	-0.00704356	0.00090119	0.0031618	0.00219951	0.00020716	0.0068842	-0.00361739	0.00165329	0.00175823	0.00792884	0	0.00123629	0	-0.00258137	-0.01192929	-0.0008998	-0.01939496	-0.00159125	-0.00574127	-0.00033465	0.00560935	-0.00229473	0.00092427	0.00809531	-0.00669297	-0.00224693	0.00486037	-0.0020557	-0.00468508	0.01026256	-0.0114896	-0.00879648	0.00543406	-0.00275687	-0.00583245	0.01185612	-0.01435802	-0.32210507	0.13642851	-0.13642851	0.32210507	-0.06521972	0.52708287	0.23692012	-0.23692012	-0.52708287	0.06521972	5.29386254	1.33100971	-5.29386254	-0.21495959	48.97550614	0.09353168	7.50178395	0.08777387	9.37702682	0.04388694	0	0	0.00000004	0.00000005	-0.00000691	0.00000014	0	0	0.00144634	-0.03160474	-0.00495211	0.0139673	-0.02236606	-0.01009963	0.00717776	-0.061761	-0.00005475	0.00381413	-0.17518278	0.00047247	-0.00001068	0.00000252	0.00000129	-0.00000174	-0.0000007	-0.00000348	-0.00000223	-0.00000668	-0.00000376	0	0	0	0.00003877	0.00013603	0.00009463	-0.00013232	0.0003195	-0.00030304	0.00003877	0.00013603	0.00009463	0.00000891	0.00029619	-0.00015564	0.00007756	0.00007565	0.00041392	0	0.00020255	0	-0.00011106	-0.00051325	0.00000099	-0.00025122	0.00000124	0.00000816	-0.0000144	0.00024134	-0.00009873	0.00003977	0.00034829	-0.00028796	-0.00009667	0.00020911	-0.00008844	-0.00020157	0.00044154	-0.00049433	-0.00037846	0.0002338	-0.00011861	-0.00025094	0.0005101	-0.00061774
1	-0.00000061	0.0000053	22.00000026	0.14068054	0.60747905	-0.15075343	-0.05044387	-2.03919749	0.00000001	71.99999992	0	0	-49.99980313	0	0	0	71.99999992	0	0	-49.99986444	0	0	0	-7.48750834	3.17135514	-3.17135514	7.48750834	-1.51606813	12.25232935	5.50733772	-5.50733772	-12.25232935	1.51606813	58.09296512	30.94004776	-58.09296512	19.98617509	48.52797785	7.97688384	8.16871051	-9.50122304	10.13284151	-4.75061152	0	0	0.00000004	0.00000033	0.00016933	-0.00019073	0	0	0.00143226	-0.03155594	-0.00494425	0.01459853	-0.02225038	-0.0096771	0.00662348	-0.06211941	-0.00065904	0.00448611	-0.17510334	0.00021605	-0.00091086	0.00022441	0.00009365	0.00016257	0.00006503	0.00032514	0.00020809	0.00062427	0.00035115	0	0	0	0.0009013	0.00316218	0.00219978	-0.00307596	0.00742692	-0.00704442	0.0009013	0.00316218	0.00219978	0.00020719	0.00688504	-0.00361783	0.00165348	0.00175845	0.00792961	0	0.00123656	0	-0.00258169	-0.01193075	-0.00090003	-0.01941505	-0.00159434	-0.00575148	-0.00033469	0.00561003	-0.00229501	0.00092438	0.0080963	-0.00669379	-0.0022472	0.00486097	-0.00205595	-0.00468565	0.01026381	-0.01149101	-0.00879755	0.00543472	-0.0027572	-0.00583316	0.01185757	-0.01435977	-0.32314637	0.13686955	-0.13686955	0.32314637	-0.06543057	0.52878683	0.23768604	-0.23768604	-0.52878683	0.06543057	5.32226287	1.33531259	-5.32226287	-0.21401902	49.10051073	0.09312189	7.50171716	0.08727042	9.37695049	0.04363521	0	0	0.00000004	0.00000005	-0.00000691	0.00000014	0	0	0.00145028	-0.03161838	-0.00495431	0.01396727	-0.02239838	-0.01009965	0.00717779	-0.06176098	-0.00005472	0.0038141	-0.17518279	0.00047249	-0.00001063	0.00000251	0.00000128	-0.00000173	-0.00000069	-0.00000346	-0.00000221	-0.00000664	-0.00000374	0	0	0	0.0000389	0.00013647	0.00009494	-0.00013275	0.00032053	-0.00030402	0.0000389	0.00013647	0.00009494	0.00000894	0.00029715	-0.00015614	0.00007781	0.00007589	0.00041523	0	0.00020255	0	-0.00011142	-0.00051491	0.00000097	-0.00025199	0.00000124	0.00000813	-0.00001444	0.00024212	-0.00009905	0.00003989	0.00034942	-0.00028889	-0.00009698	0.00020979	-0.00008873	-0.00020222	0.00044297	-0.00049593	-0.00037969	0.00023455	-0.000119	-0.00025175	0.00051175	-0.00061974
2	-0.00000061	0.0000053	22.00000026	0.14072506	0.60747632	-0.1507287	-0.0556571	-2.04370926	0.00000001	71.99999992	0	0	-49.99980313	0	0	0	71.99999992	0	0	-49.99986444	0	0	0	-7.48628908	3.17083872	-3.17083872	7.48628908	-1.51582126	12.2503342	5.50644091	-5.50644091	-12.2503342	1.51582126	58.09118675	30.93500953	-58.09118675	19.99408194	48.52376742	7.92508919	8.10126892	-9.50010163	10.05698786	-4.75005082	0	0	0.00000004	0.00000033	0.00016933	-0.00019073	0	0	0.00143212	-0.03155548	-0.00494418	0.01459483	-0.02224929	-0.00968014	0.00662712	-0.06211705	-0.00065507	0.00448164	-0.17510392	0.00021759	-0.00090495	0.00022289	0.00009315	0.00016255	0.00006502	0.00032511	0.00020807	0.0006242	0.00035112	0	0	0	0.00090115	0.00316167	0.00219942	-0.00307546	0.00742571	-0.00704327	0.00090115	0.00316167	0.00219942	0.00020716	0.00688392	-0.00361725	0.00165323	0.00175816	0.00792859	0	0.00123619	0	-0.00258127	-0.01192881	-0.00089973	-0.0194236	-0.00159566	-0.00575582	-0.00033464	0.00560912	-0.00229464	0.00092423	0.00809498	-0.0066927	-0.00224684	0.00486018	-0.00205562	-0.00468489	0.01026214	-0.01148914	-0.00879612	0.00543384	-0.00275676	-0.00583221	0.01185564	-0.01435744	-0.32739452	0.13866887	-0.13866887	0.32739452	-0.06629073	0.53573837	0.24081071	-0.24081071	-0.53573837	0.06629073	5.34884105	1.35286688	-5.34884105	-0.21315982	49.21265227	0.09274756	7.50165998	0.08681153	9.37688515	0.04340577	0	0	0.00000004	0.00000005	-0.00000691	0.00000014	0	0	0.00145381	-0.03163061	-0.00495628	0.01396724	-0.02242737	-0.01009966	0.00717782	-0.06176096	-0.00005469	0.00381407	-0.17518279	0.0004725	-0.00001059	0.0000025	0.00000128	-0.00000172	-0.00000069	-0.00000344	-0.0000022	-0.00000661	-0.00000372	0	0	0	0.00003941	0.00013827	0.00009619	-0.0001345	0.00032475	-0.00030802	0.00003941	0.00013827	0.00009619	0.00000906	0.00030105	-0.00015819	0.00007883	0.00007689	0.00042064	0	0.00020249	0	-0.00011289	-0.00052168	0.00000096	-0.00025269	0.00000124	0.0000081	-0.00001463	0.0002453	-0.00010035	0.00004042	0.00035401	-0.00029269	-0.00009826	0.00021255	-0.0000899	-0.00020488	0.00044879	-0.00050245	-0.00038468	0.00023764	-0.00012056	-0.00025506	0.00051848	-0.00062789
3	-0.00000061	0.0000053	22.00000026	0.14077379	0.60743399	-0.15091365	-0.03417339	-2.05165446	0.00000001	71.99999992	0	0	-49.99980313	0	0	0	71.99999992	0	0	-49.99986444	0	0	0	-7.50190685	3.17745367	-3.17745367	7.50190685	-1.51898354	12.27589063	5.51792835	-5.51792835	-12.27589063	1.51898354	58.00583291	30.99954561	-58.00583291	19.4155132	48.49727834	10.90915531	8.22484597	-7.69791151	10.19587782	-3.84895575	0	0	0.00000004	0.00000033	0.00016933	-0.00019073	0	0	0.00143129	-0.03155259	-0.00494371	0.01479881	-0.02224244	-0.00949878	0.00641731	-0.06225272	-0.00088381	0.00474072	-0.17506951	0.00013203	-0.00124569	0.0003116	0.00011983	0.00013564	0.00005426	0.00027128	0.00017362	0.00052086	0.00029298	0	0	0	0.00090303	0.00316826	0.00220401	-0.00308187	0.0074412	-0.00705796	0.00090303	0.00316826	0.00220401	0.00020759	0.00689828	-0.00362479	0.00165636	0.00176183	0.00794167	0	0.00124092	0	-0.00258665	-0.01195369	-0.00090362	-0.01880094	-0.00150114	-0.00543904	-0.00033533	0.00562082	-0.00229943	0.00092616	0.00811187	-0.00670666	-0.00225152	0.00487031	-0.0020599	-0.00469466	0.01028355	-0.0115131	-0.00881447	0.00544517	-0.00276251	-0.00584438	0.01188037	-0.01438739	-0.32259438	0.13663575	-0.13663575	0.32259438	-0.0653188	0.52788357	0.23728003	-0.23728003	-0.52788357	0.0653188	5.39964473	1.33303165	-5.39964473	-0.21127871	49.47759934	0.09192768	7.50151782	0.08580272	9.37672269	0.04290136	0	0	0.00000004	0.00000005	-0.00000691	0.00000014	0	0	0.00146215	-0.03165951	-0.00496093	0.01396716	-0.02249585	-0.0100997	0.00717787	-0.06176093	-0.00005463	0.003814	-0.1751828	0.00047253	-0.0000105	0.00000248	0.00000127	-0.0000017	-0.00000068	-0.0000034	-0.00000218	-0.00000653	-0.00000367	0	0	0	0.00003883	0.00013624	0.00009478	-0.00013253	0.00031998	-0.0003035	0.00003883	0.00013624	0.00009478	0.00000893	0.00029664	-0.00015587	0.00007768	0.00007576	0.00041452	0	0.00020256	0	-0.00011123	-0.00051403	0.00000098	-0.00025423	0.00000123	0.00000803	-0.00001442	0.0002417	-0.00009888	0.00003983	0.00034882	-0.0002884	-0.00009682	0.00020943	-0.00008858	-0.00020188	0.00044221	-0.00049508	-0.00037904	0.00023415	-0.00011879	-0.00025132	0.00051088	-0.00061868
4	-0.00000061	0.0000053	22.00000026	0.14083452	0.60743404	-0.15092042	-0.03076278	-2.06186376	0.00000001	71.99999992	0	0	-49.99980313	0	0	0	71.99999992	0	0	-49.99986444	0	0	0	-7.50062229	3.17690959	-3.17690959	7.50062229	-1.51872344	12.27378862	5.51698351	-5.51698351	-12.27378862	1.51872344	58.01556583	30.99423751	-58.01556583	19.41907263	48.51167833	10.92097597	8.30121997	-7.75544282	10.28149652	-3.87772141	0	0	0.00000004	0.00000033	0.00016933	-0.00019073	0	0	0.00143174	-0.03155416	-0.00494396	0.01479957	-0.02224617	-0.00949804	0.00641648	-0.06225326	-0.00088471	0.00474175	-0.17506936	0.0001317	-0.00124704	0.00031195	0.00011993	0.00013653	0.00005461	0.00027306	0.00017476	0.00052427	0.0002949	0	0	0	0.00090288	0.00316772	0.00220363	-0.00308134	0.00743993	-0.00705676	0.00090288	0.00316772	0.00220363	0.00020755	0.0068971	-0.00362417	0.0016561	0.00176153	0.0079406	0	0.00124053	0	-0.00258621	-0.01195165	-0.0009033	-0.01880475	-0.00150171	-0.00544097	-0.00033528	0.00561986	-0.00229903	0.000926	0.00811048	-0.00670551	-0.00225114	0.00486948	-0.00205955	-0.00469386	0.01028179	-0.01151113	-0.00881296	0.00544424	-0.00276203	-0.00584338	0.01187834	-0.01438492	-0.3320257	0.14063042	-0.14063042	0.3320257	-0.06722845	0.54331669	0.24421711	-0.24421711	-0.54331669	0.06722845	5.42661932	1.37200395	-5.42661932	-0.21041125	49.58951193	0.09155002	7.50146608	0.08534144	9.37666355	0.04267072	0	0	0.00000004	0.00000005	-0.00000691	0.00000014	0	0	0.00146567	-0.03167171	-0.0049629	0.01396713	-0.02252478	-0.01009972	0.0071779	-0.06176091	-0.0000546	0.00381397	-0.1751828	0.00047254	-0.00001045	0.00000247	0.00000126	-0.00000169	-0.00000068	-0.00000338	-0.00000217	-0.0000065	-0.00000365	0	0	0	0.00003997	0.00014022	0.00009755	-0.0001364	0.00032934	-0.00031238	0.00003997	0.00014022	0.00009755	0.00000919	0.00030531	-0.00016043	0.00007994	0.00007798	0.00042654	0	0.00020243	0	-0.00011448	-0.00052906	0.00000095	-0.00025494	0.00000122	0.000008	-0.00001484	0.00024877	-0.00010177	0.00004099	0.00035902	-0.00029683	-0.00009965	0.00021555	-0.00009117	-0.00020778	0.00045514	-0.00050956	-0.00039012	0.000241	-0.00012227	-0.00025867	0.00052581	-0.00063677
